<svg xmlns="http://www.w3.org/2000/svg" viewBox="0 0 900 540" width="900" height="540">
  <defs>
    <linearGradient id="bg" x1="0%" y1="0%" x2="100%" y2="100%">
      <stop offset="0%" stop-color="#2a2210"/>
      <stop offset="50%" stop-color="#1e1a10"/>
      <stop offset="100%" stop-color="#1c1a14"/>
    </linearGradient>
    <radialGradient id="glow" cx="50%" cy="45%" r="50%">
      <stop offset="0%" stop-color="#c9963a" stop-opacity="0.15"/>
      <stop offset="100%" stop-color="#1c1a14" stop-opacity="0"/>
    </radialGradient>
  </defs>
  <rect width="900" height="540" fill="url(#bg)"/>
  <rect width="900" height="540" fill="url(#glow)"/>
  <!-- Stars -->
  <g fill="#f0e0b0" opacity="0.7">
    <circle cx="80" cy="60" r="1.2"/><circle cx="145" cy="40" r="0.8"/>
    <circle cx="200" cy="90" r="1.5"/><circle cx="320" cy="30" r="1.0"/>
    <circle cx="400" cy="55" r="0.7"/><circle cx="480" cy="25" r="1.3"/>
    <circle cx="560" cy="70" r="0.9"/><circle cx="640" cy="35" r="1.1"/>
    <circle cx="720" cy="60" r="0.8"/><circle cx="800" cy="40" r="1.4"/>
    <circle cx="860" cy="80" r="0.7"/><circle cx="50" cy="130" r="0.9"/>
    <circle cx="170" cy="150" r="1.2"/><circle cx="290" cy="110" r="0.8"/>
    <circle cx="750" cy="120" r="1.0"/><circle cx="840" cy="160" r="0.6"/>
    <polygon points="450,32 453,42 463,42 455,48 458,58 450,52 442,58 445,48 437,42 447,42" fill="#c9963a" opacity="0.9"/>
  </g>
  <!-- Temple columns -->
  <g opacity="0.35">
    <rect x="120" y="200" width="28" height="250" fill="#c9963a" rx="2"/>
    <rect x="112" y="196" width="44" height="12" fill="#c9963a" rx="1"/>
    <rect x="108" y="440" width="52" height="14" fill="#c9963a" rx="1"/>
    <line x1="127" y1="210" x2="127" y2="438" stroke="#1c1a14" stroke-width="1.5" stroke-opacity="0.4"/>
    <line x1="134" y1="210" x2="134" y2="438" stroke="#1c1a14" stroke-width="1.5" stroke-opacity="0.4"/>
    <line x1="141" y1="210" x2="141" y2="438" stroke="#1c1a14" stroke-width="1.5" stroke-opacity="0.4"/>
    <rect x="775" y="180" width="28" height="270" fill="#c9963a" rx="2"/>
    <rect x="767" y="176" width="44" height="12" fill="#c9963a" rx="1"/>
    <rect x="763" y="440" width="52" height="14" fill="#c9963a" rx="1"/>
    <line x1="782" y1="190" x2="782" y2="438" stroke="#1c1a14" stroke-width="1.5" stroke-opacity="0.4"/>
    <line x1="789" y1="190" x2="789" y2="438" stroke="#1c1a14" stroke-width="1.5" stroke-opacity="0.4"/>
    <line x1="796" y1="190" x2="796" y2="438" stroke="#1c1a14" stroke-width="1.5" stroke-opacity="0.4"/>
  </g>
  <!-- Olive branch -->
  <g transform="translate(560, 260) rotate(-35)" opacity="0.5">
    <path d="M0,80 Q-10,40 0,-20 Q10,-60 5,-90" stroke="#c9963a" stroke-width="1.8" fill="none"/>
    <ellipse cx="-14" cy="60" rx="12" ry="6" fill="#9a7020" transform="rotate(-30,-14,60)"/>
    <ellipse cx="14" cy="50" rx="12" ry="6" fill="#9a7020" transform="rotate(30,14,50)"/>
    <ellipse cx="-16" cy="20" rx="12" ry="6" fill="#9a7020" transform="rotate(-40,-16,20)"/>
    <ellipse cx="16" cy="10" rx="12" ry="6" fill="#9a7020" transform="rotate(40,16,10)"/>
    <ellipse cx="-12" cy="-20" rx="10" ry="5" fill="#9a7020" transform="rotate(-30,-12,-20)"/>
    <ellipse cx="10" cy="-30" rx="10" ry="5" fill="#9a7020" transform="rotate(30,10,-30)"/>
    <circle cx="-14" cy="52" r="3.5" fill="#c9963a"/>
    <circle cx="14" cy="42" r="3.5" fill="#c9963a"/>
    <circle cx="-16" cy="12" r="3" fill="#c9963a"/>
    <circle cx="16" cy="2" r="3" fill="#c9963a"/>
  </g>
  <!-- Ground shadow -->
  <rect x="0" y="490" width="900" height="50" fill="#0e0d0a" opacity="0.5"/>
  <line x1="180" y1="478" x2="720" y2="478" stroke="#c9963a" stroke-width="0.8" stroke-opacity="0.3"/>
</svg>