<svg xmlns="http://www.w3.org/2000/svg" viewBox="0 0 900 540" width="900" height="540">
  <defs>
    <linearGradient id="bg" x1="0%" y1="0%" x2="40%" y2="100%">
      <stop offset="0%" stop-color="#c0c8a8"/>
      <stop offset="30%" stop-color="#6a8858"/>
      <stop offset="70%" stop-color="#2a3a22"/>
      <stop offset="100%" stop-color="#141812"/>
    </linearGradient>
  </defs>
  <rect width="900" height="540" fill="url(#bg)"/>
  <!-- Rain streaks -->
  <g stroke="#8aab70" stroke-width="0.9" opacity="0.28">
    <line x1="55" y1="0" x2="25" y2="100"/><line x1="105" y1="0" x2="75" y2="100"/>
    <line x1="155" y1="0" x2="125" y2="100"/><line x1="205" y1="0" x2="175" y2="100"/>
    <line x1="255" y1="0" x2="225" y2="100"/><line x1="305" y1="0" x2="275" y2="100"/>
    <line x1="355" y1="0" x2="325" y2="100"/><line x1="405" y1="0" x2="375" y2="100"/>
    <line x1="455" y1="0" x2="425" y2="100"/><line x1="505" y1="0" x2="475" y2="100"/>
    <line x1="555" y1="0" x2="525" y2="100"/><line x1="605" y1="0" x2="575" y2="100"/>
    <line x1="655" y1="0" x2="625" y2="100"/><line x1="705" y1="0" x2="675" y2="100"/>
    <line x1="755" y1="0" x2="725" y2="100"/><line x1="805" y1="0" x2="775" y2="100"/>
    <line x1="855" y1="0" x2="825" y2="100"/><line x1="905" y1="0" x2="875" y2="100"/>
    <line x1="55" y1="100" x2="25" y2="200"/><line x1="105" y1="100" x2="75" y2="200"/>
    <line x1="155" y1="100" x2="125" y2="200"/><line x1="205" y1="100" x2="175" y2="200"/>
    <line x1="255" y1="100" x2="225" y2="200"/><line x1="305" y1="100" x2="275" y2="200"/>
    <line x1="355" y1="100" x2="325" y2="200"/><line x1="405" y1="100" x2="375" y2="200"/>
    <line x1="455" y1="100" x2="425" y2="200"/><line x1="505" y1="100" x2="475" y2="200"/>
    <line x1="555" y1="100" x2="525" y2="200"/><line x1="605" y1="100" x2="575" y2="200"/>
    <line x1="655" y1="100" x2="625" y2="200"/><line x1="705" y1="100" x2="675" y2="200"/>
    <line x1="755" y1="100" x2="725" y2="200"/><line x1="805" y1="100" x2="775" y2="200"/>
    <line x1="855" y1="100" x2="825" y2="200"/><line x1="55" y1="200" x2="25" y2="300"/>
    <line x1="155" y1="200" x2="125" y2="300"/><line x1="255" y1="200" x2="225" y2="300"/>
    <line x1="355" y1="200" x2="325" y2="300"/><line x1="455" y1="200" x2="425" y2="300"/>
    <line x1="555" y1="200" x2="525" y2="300"/><line x1="655" y1="200" x2="625" y2="300"/>
    <line x1="755" y1="200" x2="725" y2="300"/><line x1="855" y1="200" x2="825" y2="300"/>
    <line x1="55" y1="300" x2="25" y2="400"/><line x1="205" y1="300" x2="175" y2="400"/>
    <line x1="355" y1="300" x2="325" y2="400"/><line x1="505" y1="300" x2="475" y2="400"/>
    <line x1="655" y1="300" x2="625" y2="400"/><line x1="805" y1="300" x2="775" y2="400"/>
    <line x1="55" y1="400" x2="25" y2="500"/><line x1="305" y1="400" x2="275" y2="500"/>
    <line x1="555" y1="400" x2="525" y2="500"/><line x1="805" y1="400" x2="775" y2="500"/>
  </g>
  <!-- Raindrop splashes -->
  <g fill="none" stroke="#8aab70" stroke-width="0.7" opacity="0.38">
    <ellipse cx="118" cy="402" rx="6" ry="2"/><ellipse cx="278" cy="422" rx="5" ry="2"/>
    <ellipse cx="458" cy="392" rx="7" ry="2.5"/><ellipse cx="628" cy="412" rx="5" ry="2"/>
    <ellipse cx="778" cy="442" rx="6" ry="2"/><ellipse cx="198" cy="462" rx="4" ry="1.5"/>
    <ellipse cx="378" cy="472" rx="5" ry="2"/><ellipse cx="558" cy="452" rx="6" ry="2"/>
    <ellipse cx="728" cy="482" rx="4" ry="1.5"/>
  </g>
  <!-- Umbrella -->
  <g transform="translate(450, 285)" fill="#5e8048" opacity="0.68">
    <path d="M-88,0 Q-88,-88 0,-98 Q88,-88 88,0 Z"/>
    <line x1="0" y1="-98" x2="-88" y2="0" stroke="#3a5a2a" stroke-width="1.5"/>
    <line x1="0" y1="-98" x2="-58" y2="-5" stroke="#3a5a2a" stroke-width="1.5"/>
    <line x1="0" y1="-98" x2="-28" y2="0" stroke="#3a5a2a" stroke-width="1.5"/>
    <line x1="0" y1="-98" x2="0" y2="0" stroke="#3a5a2a" stroke-width="1.5"/>
    <line x1="0" y1="-98" x2="28" y2="0" stroke="#3a5a2a" stroke-width="1.5"/>
    <line x1="0" y1="-98" x2="58" y2="-5" stroke="#3a5a2a" stroke-width="1.5"/>
    <line x1="0" y1="-98" x2="88" y2="0" stroke="#3a5a2a" stroke-width="1.5"/>
    <circle cx="-88" cy="0" r="3.5" fill="#8aab70"/>
    <circle cx="88" cy="0" r="3.5" fill="#8aab70"/>
    <line x1="0" y1="0" x2="0" y2="105" stroke="#3a5a2a" stroke-width="3.5" stroke-linecap="round"/>
    <path d="M0,105 Q0,126 -22,126 Q-38,126 -38,114" fill="none" stroke="#3a5a2a" stroke-width="3.5" stroke-linecap="round"/>
  </g>
  <!-- Ground puddles -->
  <g fill="#3a5a2a" opacity="0.28">
    <ellipse cx="198" cy="512" rx="82" ry="7"/>
    <ellipse cx="598" cy="522" rx="102" ry="6.5"/>
    <ellipse cx="798" cy="508" rx="62" ry="5.5"/>
  </g>
  <!-- Street lamp -->
  <g transform="translate(718, 182)" opacity="0.38" stroke="#8aab70" stroke-width="2" fill="none">
    <line x1="0" y1="0" x2="0" y2="252" stroke-width="2.5"/>
    <path d="M0,8 Q0,-32 32,-32 L32,-20" stroke-width="2"/>
    <circle cx="32" cy="-16" r="12" fill="#c8d0a0" stroke="#8aab70" opacity="0.28"/>
  </g>
</svg>